<mxfile host="app.diagrams.net" modified="2023-02-19T12:57:20.138Z" agent="5.0 (Macintosh; Intel Mac OS X 10_15_7) AppleWebKit/537.36 (KHTML, like Gecko) Chrome/109.0.0.0 Safari/537.36" etag="C-aVlIGyZmb63qWYfBIe" version="20.8.20" type="github">
  <diagram name="Page-1" id="f1b7ffb7-ca1e-a977-7cf5-a751b3c06c05">
    <mxGraphModel dx="763" dy="558" grid="1" gridSize="10" guides="1" tooltips="1" connect="1" arrows="1" fold="1" page="1" pageScale="1" pageWidth="826" pageHeight="1169" background="none" math="0" shadow="0">
      <root>
        <mxCell id="0" />
        <mxCell id="1" parent="0" />
        <mxCell id="BpwZ51HxtqhxSioCZ9V9-61" value="" style="rounded=0;whiteSpace=wrap;html=1;fontSize=16;" vertex="1" parent="1">
          <mxGeometry x="150" y="150" width="500" height="270" as="geometry" />
        </mxCell>
        <mxCell id="BpwZ51HxtqhxSioCZ9V9-63" value="" style="rounded=0;whiteSpace=wrap;html=1;fontSize=16;" vertex="1" parent="1">
          <mxGeometry x="520" y="190" width="120" height="220" as="geometry" />
        </mxCell>
        <mxCell id="BpwZ51HxtqhxSioCZ9V9-64" value="&lt;h1 style=&quot;font-size: 13px;&quot;&gt;Worklist&lt;/h1&gt;" style="text;html=1;strokeColor=none;fillColor=none;spacing=5;spacingTop=-20;whiteSpace=wrap;overflow=hidden;rounded=0;fontSize=13;" vertex="1" parent="1">
          <mxGeometry x="160" y="170" width="190" height="20" as="geometry" />
        </mxCell>
        <mxCell id="BpwZ51HxtqhxSioCZ9V9-65" value="" style="rounded=0;whiteSpace=wrap;html=1;fontSize=16;" vertex="1" parent="1">
          <mxGeometry x="160" y="190" width="360" height="220" as="geometry" />
        </mxCell>
        <mxCell id="BpwZ51HxtqhxSioCZ9V9-67" value="Vertical Container" style="swimlane;whiteSpace=wrap;html=1;fontSize=13;" vertex="1" parent="1">
          <mxGeometry x="190" y="470" width="200" height="200" as="geometry">
            <mxRectangle x="190" y="470" width="150" height="30" as="alternateBounds" />
          </mxGeometry>
        </mxCell>
      </root>
    </mxGraphModel>
  </diagram>
</mxfile>
